<svg xmlns="http://www.w3.org/2000/svg" width="1200" height="900" viewBox="0 0 1200 900"><rect width="100%" height="100%" fill="white"/><path d="M222,815L204,803L190,801L198,816L139,826L115,834L110,839L163,825L206,819L200,807L218,818ZM398,69L388,89L386,118L389,144L401,178L411,193L430,210L454,220L480,223L468,258L453,283L448,317L455,340L467,359L488,380L511,396L501,408L498,427L504,441L515,450L499,470L497,491L501,501L512,512L497,530L495,552L501,565L512,576L485,607L430,655L407,684L400,677L395,664L394,619L380,595L385,584L386,560L378,538L372,531L366,535L343,518L301,508L282,494L274,511L273,535L265,533L262,537L262,557L271,583L282,602L306,620L333,624L357,617L360,619L364,631L360,666L362,690L372,710L390,728L352,727L319,741L305,757L300,770L299,803L246,810L235,798L222,792L220,796L228,815L234,816L229,800L244,816L301,808L317,840L333,855L357,865L397,860L485,835L488,857L498,869L517,878L551,884L609,880L629,870L662,881L714,880L751,870L764,853L799,859L821,858L843,846L857,831L869,810L952,821L963,804L966,822L990,811L984,824L1019,826L1082,840L1082,836L1046,826L992,819L1001,809L999,806L984,807L970,814L970,798L997,790L1007,779L1013,762L1010,759L995,759L972,772L958,751L942,744L931,745L934,769L944,782L962,790L961,800L948,816L917,809L872,805L877,763L870,743L860,732L828,719L808,719L789,725L777,704L760,688L741,678L718,672L705,630L666,552L648,499L641,434L708,432L734,424L755,411L770,394L778,378L797,296L823,303L845,304L871,298L895,284L918,261L935,235L947,204L945,184L934,174L907,163L853,159L814,169L784,187L766,161L772,138L783,117L793,117L807,111L821,90L821,74L816,62L803,49L788,43L767,45L752,56L744,75L750,98L727,129L712,117L729,113L729,104L710,89L686,87L693,75L690,69L663,73L640,92L624,81L614,103L607,69L619,57L622,34L613,18L592,7L577,7L563,12L546,31L546,56L555,68L569,78L569,104L565,116L545,127L520,98L480,74L430,62L411,63ZM499,816L515,802L545,792L572,791L602,798L625,816L625,861L617,869L593,873L593,842L586,828L587,858L581,874L543,875L514,868L500,860L495,851L494,836ZM750,805L757,825L757,847L754,856L743,865L722,871L705,871L707,851L700,827L700,855L695,872L658,872L633,861L634,820L648,805L665,795L694,787L718,787L740,794ZM1005,766L993,785L982,790L970,790L981,772L993,766ZM938,750L952,755L960,763L965,774L964,784L954,781L942,770ZM324,749L340,748L355,755L367,766L382,791L388,813L388,836L383,850L376,856L358,857L342,851L324,836L313,818L307,797L307,777L314,758ZM548,750L555,760L553,771L540,785L510,796L510,783L523,752L532,745ZM709,741L722,742L733,778L703,761L701,751ZM856,741L864,749L869,765L868,787L859,813L845,833L829,846L815,851L793,848L785,834L784,818L788,798L798,776L826,745L839,739ZM339,739L354,735L383,736L401,743L420,758L431,773L441,800L441,826L434,841L391,851L396,835L396,814L389,788L378,768L362,751ZM840,730L816,743L792,771L777,811L776,827L782,846L767,845L763,815L748,787L756,764L774,743L792,732L809,727ZM743,690L759,698L778,723L746,718L739,709ZM721,682L740,688L735,698L735,710L744,722L779,730L758,749L743,775L729,738ZM436,678L447,691L446,702L436,710L416,715L401,724L407,703L424,676ZM690,620L701,643L708,670L698,666L685,649L684,632ZM500,605L500,623L490,644L478,654L465,653L457,642ZM627,548L639,545L657,551L674,587L671,599L663,609L650,611L643,608L624,589L617,573L617,562ZM530,512L526,543L516,568L505,556L503,538L515,519ZM555,510L571,520L575,537L565,563L555,574L544,578L532,570L529,560L539,513ZM285,505L300,516L334,523L351,531L363,544L368,557L374,547L378,559L378,579L373,591L365,590L386,619L388,669L394,683L404,692L392,716L377,703L371,692L368,665L372,634L364,611L353,601L342,598L354,609L334,616L310,613L290,599L303,598L285,587L276,575L269,545L287,553L280,529ZM631,455L643,517L622,513L614,506L608,492L614,469ZM533,451L532,507L528,510L509,498L505,478L520,456ZM544,425L556,430L566,440L573,455L569,473L561,481L550,485L542,483ZM631,432L633,450L619,457L609,469L604,482L604,495L609,507L618,516L633,522L645,521L653,543L634,541L623,545L613,560L613,576L626,600L644,614L657,616L665,613L677,596L688,616L680,630L680,648L695,669L711,678L719,736L702,741L696,756L704,768L728,780L693,779L674,783L650,794L632,808L625,762L627,743L658,636L635,685L621,733L604,655L591,620L581,605L600,668L623,800L587,785L548,784L558,771L560,762L556,752L543,742L525,744L513,760L513,719L503,658L502,703L481,684L463,678L491,700L505,725L505,761L497,797L487,826L446,838L449,802L443,780L429,757L398,731L417,719L435,715L448,707L452,699L450,687L439,675L428,671L454,645L463,657L480,658L492,649L504,624L504,600L526,568L536,580L549,582L563,573L574,556L579,541L575,518L560,507L541,508L542,488L557,488L572,477L577,467L577,452L562,429L544,420L544,412L564,417L575,429L593,437L609,438ZM448,727L440,738L441,749L447,759L468,777L477,779L486,776L494,761L490,734L472,724ZM450,731L470,728L486,736L490,761L484,772L472,774L452,758L444,744ZM666,677L657,683L654,690L652,722L659,731L675,734L694,724L701,706L696,694L686,684ZM668,681L683,687L696,703L692,720L673,730L662,728L656,720L659,688ZM570,671L545,687L539,704L542,714L552,725L568,733L580,734L588,731L595,721L593,687L585,673ZM571,675L583,677L589,689L591,718L582,729L559,724L544,707L544,698L549,689ZM539,605L522,608L514,620L513,657L516,664L525,670L536,669L549,661L565,639L562,619L554,611ZM545,611L560,624L560,640L543,660L524,665L517,655L519,618L527,610ZM519,400L535,408L533,449L515,441L507,429L508,412ZM768,374L768,380L758,396L736,413L730,399L735,379L751,370ZM460,294L476,298L488,313L488,328L471,348L457,320L456,304ZM491,165L509,170L502,178ZM420,100L449,104L465,113L479,127L495,157L485,157L483,160L487,173L498,184L492,196L458,191L434,173L424,156L418,136L417,110ZM938,189L939,200L934,217L911,256L890,277L854,294L827,295L800,286L798,256L822,247L830,236L819,232L859,203L880,198L910,203L914,207L905,230L893,247L872,265L842,275L802,271L825,280L847,280L865,275L888,260L904,242L917,218L919,202L894,192L873,192L855,197L801,236L820,240L805,248L797,248L790,225L790,291L773,366L770,371L750,366L732,376L726,388L731,416L711,423L679,427L636,425L633,420L616,429L596,430L577,421L566,407L545,403L509,385L473,353L488,338L493,326L493,314L482,297L460,288L476,262L495,205L520,160L509,169L485,123L461,102L439,94L416,95L412,102L411,128L417,154L427,173L439,186L456,196L490,200L484,213L463,213L437,204L415,184L404,164L396,134L396,93L400,80L407,73L415,71L447,73L479,83L511,102L534,127L538,135L528,147L528,152L558,128L592,114L618,111L629,120L625,109L627,91L640,106L658,85L681,77L669,100L696,94L720,106L693,116L708,124L722,145L721,157L702,144L711,166L709,189L717,178L718,164L724,166L728,162L728,140L741,145L733,135L760,97L753,84L757,63L770,53L784,51L798,56L809,67L813,78L811,93L795,108L778,109L757,155L751,150L746,151L772,182L785,210L785,198L800,186L822,175L849,168L898,170L921,177ZM559,337L560,345L569,357L577,398L587,412L597,417L606,418L620,413L651,378L661,375L672,364L667,360L661,369L646,374L614,373L582,360L567,347L564,336ZM579,383L592,377L615,381L625,388L629,396L616,409L599,412L586,403ZM643,330L643,340L653,342L654,332ZM598,315L589,319L591,328L602,325L603,319ZM500,233L500,237L509,244L504,260L504,278L513,296L508,276L509,262L517,243L527,231L544,221L560,220L572,225L583,238L583,244L567,233L549,234L533,245L524,260L522,284L533,302L519,301L538,309L564,307L548,322L544,332L575,308L591,303L613,302L641,309L664,323L677,338L687,367L689,356L685,336L696,347L723,355L724,352L709,349L725,343L736,332L743,317L744,301L741,290L732,278L720,272L704,272L722,263L742,269L752,280L758,299L753,328L745,341L731,353L751,340L764,311L772,312L778,308L766,302L778,293L769,293L764,289L774,282L775,277L762,280L745,260L731,255L719,256L705,263L688,283L679,307L678,331L654,309L629,299L595,297L574,302L584,287L591,263L588,234L574,216L561,211L547,211L527,220L517,211L515,215L521,226L517,229L508,225L513,236ZM711,279L718,281L723,289L721,297L715,302L708,302L701,295L702,285ZM566,242L576,248L578,255L573,263L562,265L557,261L555,251ZM742,204L741,208L753,213L770,236L771,226L765,212L754,203ZM588,162L580,156L563,158L547,171L545,177L567,166L588,167ZM589,15L602,20L614,38L612,52L598,65L606,107L576,114L576,71L557,58L553,50L553,37L566,20Z" fill="black" fill-rule="evenodd"/></svg>