<svg xmlns="http://www.w3.org/2000/svg" viewBox="0 0 1448 1086"><rect width="1448" height="1086" fill="white"/><path d="M 446,877 L 450,880 L 451,885 L 461,897 L 470,902 L 479,905 L 481,904 L 483,907 L 455,950 L 428,1005 L 426,1003 L 426,890 L 435,879 Z M 595,816 L 553,831 L 521,837 L 530,838 L 555,833 L 584,823 Z M 742,714 L 746,718 L 752,733 L 760,764 L 762,766 L 771,803 L 777,841 L 779,844 L 779,852 L 785,880 L 796,955 L 802,1053 L 799,1055 L 516,1055 L 512,1052 L 510,1055 L 443,1055 L 436,1052 L 427,1041 L 427,1014 L 451,963 L 484,912 L 489,907 L 523,907 L 548,903 L 571,896 L 574,897 L 547,949 L 528,997 L 520,1023 L 521,1026 L 530,999 L 553,944 L 568,913 L 580,894 L 615,875 L 654,846 L 685,814 L 713,773 L 715,773 L 718,778 L 721,800 L 722,790 L 720,760 L 733,735 L 737,720 Z M 760,709 L 755,714 L 747,713 L 753,709 Z M 778,711 L 792,707 L 804,700 L 831,710 L 856,724 L 840,712 L 820,702 L 808,699 L 807,696 L 815,691 L 821,684 L 844,685 L 873,695 L 907,712 L 953,745 L 992,784 L 1007,804 L 1009,812 L 997,823 L 974,829 L 938,827 L 913,819 L 879,802 L 847,779 L 828,762 Z M 734,715 L 725,740 L 712,763 L 710,770 L 685,807 L 650,844 L 634,857 L 598,880 L 553,897 L 534,901 L 511,903 L 480,899 L 467,894 L 457,884 L 455,877 L 450,871 L 436,874 L 429,874 L 427,872 L 427,825 L 432,818 L 446,805 L 447,813 L 456,823 L 469,831 L 474,831 L 460,823 L 450,813 L 449,809 L 451,803 L 469,780 L 506,745 L 530,727 L 554,712 L 581,699 L 609,689 L 625,687 L 627,685 L 642,685 L 647,688 L 646,682 L 649,666 L 653,665 L 657,668 L 662,668 L 698,705 L 687,704 L 661,696 L 661,702 L 641,708 L 626,716 L 616,724 L 640,712 L 666,703 L 674,703 L 689,709 L 712,713 L 710,718 L 691,741 L 661,771 L 618,804 L 641,790 L 665,771 L 693,744 L 719,714 L 732,713 Z M 602,665 L 615,671 L 625,673 L 615,666 L 608,666 L 606,664 Z M 586,661 L 590,664 L 600,665 L 599,662 L 589,660 Z M 648,647 L 658,661 L 657,663 L 649,658 Z M 427,639 L 442,651 L 463,662 L 470,672 L 472,681 L 470,686 L 463,693 L 454,694 L 447,688 L 446,683 L 442,684 L 441,696 L 447,709 L 453,716 L 462,722 L 476,725 L 489,724 L 496,733 L 503,737 L 502,740 L 489,750 L 464,775 L 453,788 L 449,796 L 437,804 L 429,813 L 426,812 Z M 805,627 L 807,619 L 816,623 L 815,626 L 810,628 Z M 651,641 L 651,638 L 662,624 L 690,609 L 704,606 L 712,613 L 729,637 L 721,645 L 737,640 L 758,638 L 762,636 L 780,636 L 801,634 L 805,632 L 816,632 L 827,622 L 844,613 L 871,609 L 879,611 L 881,615 L 872,622 L 863,625 L 861,627 L 863,630 L 880,635 L 915,635 L 923,638 L 921,641 L 890,650 L 890,653 L 900,651 L 901,653 L 884,662 L 868,666 L 838,667 L 818,679 L 815,682 L 815,687 L 811,691 L 787,704 L 779,706 L 773,705 L 804,688 L 803,687 L 768,702 L 748,706 L 738,706 L 734,708 L 720,708 L 717,706 L 712,706 L 701,700 L 672,671 Z M 708,599 L 707,603 L 694,603 L 679,609 L 667,618 L 661,620 L 643,641 L 639,637 L 641,622 L 645,616 L 664,599 L 672,595 L 688,591 L 698,592 Z M 794,597 L 795,593 L 805,584 L 819,578 L 824,578 L 825,592 L 827,595 L 836,601 L 850,605 L 853,608 L 844,609 L 823,618 L 803,609 L 797,604 Z M 857,568 L 862,571 L 875,571 L 871,568 Z M 462,566 L 459,567 L 449,578 L 440,596 L 438,616 L 440,623 L 443,626 L 443,630 L 442,603 L 444,595 L 451,580 Z M 756,561 L 761,569 L 761,573 L 755,582 L 749,582 L 741,575 L 739,569 L 743,563 Z M 714,557 L 736,559 L 739,562 L 736,569 L 739,578 L 750,586 L 757,584 L 760,588 L 760,596 L 762,599 L 761,631 L 751,631 L 749,633 L 735,635 L 714,608 L 716,601 L 708,593 L 715,579 Z M 915,546 L 922,548 L 928,554 L 936,548 L 944,546 L 951,554 L 951,561 L 946,571 L 930,585 L 920,579 L 912,571 L 907,562 L 907,554 Z M 885,558 L 892,561 L 902,561 L 907,571 L 927,588 L 931,588 L 942,580 L 949,572 L 956,559 L 952,548 L 946,543 L 937,543 L 930,549 L 920,543 L 913,543 L 905,550 L 904,557 L 902,559 Z M 772,513 L 781,519 L 788,530 L 796,548 L 802,570 L 802,579 L 791,588 L 788,594 L 788,601 L 791,607 L 800,615 L 800,620 L 796,629 L 769,631 L 765,629 L 766,612 L 762,587 L 760,584 L 765,571 L 758,557 L 778,548 L 785,543 L 783,533 L 771,514 Z M 648,506 L 667,513 L 690,534 L 702,549 L 708,560 L 709,576 L 703,590 L 696,588 L 681,588 L 676,591 L 672,591 L 656,600 L 642,613 L 635,610 L 641,615 L 635,626 L 625,626 L 613,622 L 599,611 L 593,600 L 590,590 L 591,587 L 589,584 L 589,565 L 591,554 L 597,535 L 603,525 L 613,515 L 629,507 Z M 785,503 L 792,500 L 807,500 L 819,507 L 819,512 L 825,520 L 825,570 L 823,572 L 812,574 L 810,576 L 807,575 L 802,550 L 795,534 L 786,519 L 777,510 Z M 837,481 L 838,484 L 855,490 L 874,492 L 877,494 L 897,495 L 901,497 L 957,497 L 963,495 L 975,495 L 979,492 L 981,494 L 1005,490 L 1019,483 L 1015,482 L 1008,486 L 983,490 L 978,493 L 962,492 L 947,494 L 913,494 L 886,491 L 880,492 L 877,490 L 851,486 Z M 563,471 L 560,508 L 551,533 L 531,556 L 506,574 L 493,587 L 488,595 L 482,612 L 482,626 L 488,638 L 485,627 L 486,612 L 493,595 L 511,574 L 543,549 L 551,538 L 561,516 L 563,505 Z M 935,460 L 936,475 L 931,479 L 923,478 L 920,475 Z M 761,421 L 757,418 L 749,423 L 735,426 L 715,426 L 702,423 L 697,428 L 697,435 L 705,452 L 715,461 L 721,462 L 708,451 L 704,443 L 705,438 L 710,433 L 722,429 L 737,429 L 745,433 L 749,437 L 752,446 L 748,454 L 741,460 L 741,462 L 750,456 L 756,446 L 760,434 Z M 935,414 L 937,416 L 936,437 L 928,443 L 935,440 L 936,441 L 936,455 L 934,459 L 921,470 L 919,468 L 919,448 L 921,445 L 920,431 L 925,429 L 925,426 L 920,424 L 920,416 L 922,413 Z M 978,412 L 987,416 L 986,424 L 981,427 L 985,427 L 987,429 L 986,440 L 978,447 L 979,448 L 984,444 L 986,445 L 986,457 L 978,464 L 980,465 L 984,462 L 986,463 L 986,474 L 979,478 L 971,475 L 971,432 L 977,431 L 977,428 L 972,426 L 971,417 Z M 878,412 L 883,413 L 887,417 L 886,422 L 875,430 L 877,431 L 885,426 L 887,431 L 886,439 L 879,447 L 883,444 L 886,445 L 886,454 L 880,460 L 886,460 L 886,475 L 882,478 L 874,477 L 871,474 L 871,416 Z M 554,401 L 553,404 L 557,405 L 564,411 L 570,425 L 572,427 L 576,427 L 567,409 L 561,403 Z M 491,396 L 478,412 L 472,427 L 471,449 L 474,455 L 476,454 L 474,449 L 474,439 L 478,421 Z M 632,393 L 634,392 L 641,398 L 645,399 L 654,398 L 659,392 L 663,395 L 655,402 L 642,403 L 639,402 L 632,395 Z M 741,392 L 740,394 L 743,397 L 744,402 L 747,399 L 747,396 Z M 806,376 L 796,385 L 788,385 L 781,380 L 783,377 L 786,380 L 795,381 L 803,375 Z M 566,371 L 568,372 L 570,387 L 569,391 L 564,386 L 557,383 Z M 980,369 L 983,372 L 989,389 L 988,398 L 983,403 L 980,397 L 976,402 L 974,402 L 970,393 L 973,382 Z M 879,368 L 881,369 L 888,386 L 888,398 L 885,402 L 882,401 L 880,396 L 877,397 L 875,402 L 873,402 L 869,397 L 870,386 Z M 930,367 L 938,386 L 938,396 L 933,401 L 929,394 L 926,400 L 923,401 L 919,395 L 919,389 L 925,374 Z M 651,357 L 657,358 L 660,362 L 659,366 L 655,370 L 649,369 L 646,364 L 647,360 Z M 604,363 L 607,369 L 605,374 L 602,377 L 599,377 L 599,379 L 606,383 L 610,394 L 613,395 L 611,390 L 611,379 L 615,369 L 625,357 L 635,352 L 636,353 L 628,360 L 623,374 L 623,385 L 628,397 L 632,402 L 642,408 L 651,408 L 664,402 L 668,396 L 671,387 L 671,377 L 668,365 L 663,357 L 664,356 L 671,363 L 672,360 L 660,346 L 652,342 L 634,342 L 621,348 L 614,354 L 608,363 Z M 785,339 L 791,344 L 792,347 L 786,354 L 783,354 L 779,351 L 778,345 Z M 827,327 L 824,328 L 808,319 L 798,319 L 787,323 L 775,334 L 770,346 L 771,351 L 769,354 L 769,366 L 773,377 L 780,385 L 786,388 L 801,387 L 810,379 L 814,371 L 814,349 L 808,339 L 801,333 L 795,332 L 793,330 L 794,329 L 805,329 L 810,331 L 823,342 L 827,350 L 827,364 L 829,365 L 831,362 L 832,348 L 838,341 L 838,338 L 833,340 L 827,332 Z M 774,273 L 775,276 L 788,272 L 807,274 L 825,285 L 825,282 L 817,273 L 804,266 L 789,265 L 778,269 Z M 534,181 L 524,193 L 514,210 L 499,246 L 491,292 L 491,336 L 500,306 L 498,302 L 499,281 L 503,268 L 503,259 L 509,241 L 517,231 L 533,224 L 543,216 L 554,211 L 550,210 L 528,225 L 515,231 L 512,230 L 520,205 Z M 624,146 L 626,143 L 627,145 L 625,147 Z M 619,140 L 621,143 L 620,148 L 616,151 L 612,151 L 608,146 L 612,140 Z M 604,149 L 608,153 L 615,155 L 631,147 L 633,143 L 628,142 L 621,136 L 614,134 L 605,140 Z M 772,121 L 779,124 L 779,129 L 776,132 L 768,128 L 768,125 Z M 783,123 L 776,117 L 768,118 L 763,126 L 758,129 L 758,132 L 778,135 L 783,130 Z M 632,121 L 637,113 L 647,113 L 666,132 L 659,134 L 640,132 L 633,126 Z M 627,117 L 627,124 L 634,134 L 644,138 L 654,140 L 680,134 L 679,131 L 666,124 L 653,110 L 647,107 L 636,107 Z M 753,106 L 754,111 L 745,122 L 735,125 L 725,125 L 735,108 L 740,103 L 747,102 Z M 758,102 L 751,95 L 742,95 L 731,104 L 723,118 L 712,128 L 712,130 L 737,130 L 746,126 L 758,114 Z M 709,84 L 716,90 L 716,104 L 702,125 L 695,128 L 682,120 L 670,108 L 668,104 L 668,95 L 674,88 L 681,88 L 693,97 L 701,86 L 704,84 Z M 710,79 L 702,80 L 692,90 L 677,82 L 668,86 L 663,94 L 662,100 L 668,114 L 675,121 L 695,132 L 700,132 L 714,119 L 722,102 L 720,88 Z M 565,203 L 567,197 L 583,176 L 595,167 L 591,158 L 591,151 L 598,134 L 605,128 L 618,126 L 616,122 L 616,111 L 620,103 L 627,96 L 634,93 L 644,94 L 650,98 L 655,81 L 665,73 L 677,73 L 683,76 L 684,75 L 674,63 L 674,57 L 678,50 L 684,44 L 687,44 L 700,57 L 700,62 L 694,74 L 697,74 L 704,69 L 718,69 L 727,78 L 731,90 L 733,90 L 741,82 L 753,82 L 764,91 L 768,101 L 768,110 L 780,110 L 789,117 L 795,130 L 793,139 L 794,142 L 798,142 L 807,147 L 799,139 L 798,120 L 821,136 L 840,155 L 852,171 L 867,199 L 873,220 L 872,221 L 867,212 L 854,194 L 841,181 L 828,172 L 820,160 L 817,159 L 819,164 L 816,165 L 803,157 L 776,147 L 774,148 L 765,145 L 763,146 L 748,143 L 703,143 L 660,151 L 635,160 L 607,174 L 590,185 L 566,206 Z M 552,158 L 577,137 L 592,131 L 595,132 L 589,139 L 585,149 L 585,159 L 587,165 L 568,185 L 559,200 L 557,206 L 558,220 L 560,220 L 579,201 L 609,180 L 642,164 L 677,153 L 706,149 L 723,149 L 729,154 L 729,149 L 745,149 L 748,151 L 774,153 L 807,166 L 832,182 L 854,204 L 867,223 L 875,240 L 873,241 L 856,229 L 888,259 L 904,284 L 909,302 L 909,326 L 905,340 L 901,346 L 900,328 L 894,315 L 891,314 L 898,334 L 899,346 L 895,368 L 898,366 L 912,341 L 916,327 L 916,302 L 913,289 L 906,273 L 885,246 L 881,222 L 875,204 L 860,173 L 849,156 L 837,141 L 823,128 L 785,105 L 773,102 L 768,87 L 759,78 L 747,75 L 741,76 L 735,80 L 724,66 L 718,63 L 706,64 L 703,51 L 688,38 L 682,38 L 674,46 L 669,56 L 670,66 L 656,72 L 650,79 L 646,89 L 641,87 L 630,88 L 621,93 L 612,106 L 612,114 L 610,116 L 603,118 L 581,130 Z M 430,28 L 424,35 L 424,1047 L 433,1057 L 1023,1057 L 1023,1049 L 1021,1047 L 1021,1039 L 1019,1029 L 1017,1027 L 1017,1021 L 1002,976 L 977,922 L 965,903 L 966,900 L 989,898 L 1003,892 L 1011,886 L 1019,873 L 1023,873 L 1023,867 L 1014,867 L 1009,880 L 1004,885 L 995,890 L 979,895 L 955,895 L 922,888 L 902,880 L 867,857 L 835,828 L 816,805 L 815,806 L 823,817 L 856,852 L 865,869 L 896,949 L 913,1008 L 920,1042 L 922,1042 L 920,1038 L 921,1031 L 919,1029 L 917,1013 L 904,968 L 902,966 L 896,943 L 894,941 L 883,906 L 864,863 L 865,860 L 886,875 L 911,888 L 934,896 L 958,900 L 962,904 L 980,936 L 998,975 L 1009,1005 L 1020,1047 L 1020,1053 L 1018,1055 L 925,1055 L 923,1053 L 922,1046 L 922,1052 L 920,1055 L 805,1055 L 803,1051 L 803,1006 L 800,962 L 785,859 L 783,856 L 779,827 L 777,824 L 767,773 L 752,725 L 747,717 L 759,714 L 761,716 L 769,734 L 782,755 L 779,745 L 764,714 L 766,710 L 772,712 L 780,718 L 824,762 L 859,791 L 889,810 L 927,827 L 953,832 L 977,832 L 993,827 L 1003,821 L 1014,809 L 1023,816 L 1023,808 L 1013,803 L 1000,782 L 967,748 L 929,718 L 885,692 L 908,680 L 932,653 L 948,643 L 936,644 L 929,647 L 904,675 L 881,687 L 869,687 L 861,683 L 831,676 L 839,671 L 867,670 L 883,666 L 896,660 L 906,652 L 911,651 L 916,646 L 924,645 L 930,639 L 951,638 L 964,640 L 966,638 L 983,637 L 986,635 L 1000,634 L 1023,628 L 1023,621 L 1005,626 L 993,627 L 990,629 L 984,628 L 981,630 L 928,633 L 925,631 L 888,630 L 875,627 L 876,624 L 885,618 L 886,612 L 956,613 L 997,607 L 1020,599 L 1023,596 L 1023,519 L 1015,521 L 1016,524 L 1021,525 L 1020,544 L 1012,547 L 1006,547 L 996,553 L 990,553 L 988,555 L 978,554 L 969,557 L 991,557 L 998,555 L 1005,550 L 1012,550 L 1018,547 L 1021,549 L 1021,558 L 1019,560 L 1001,566 L 987,568 L 989,570 L 999,570 L 1013,564 L 1020,564 L 1020,591 L 1009,599 L 986,605 L 965,608 L 959,607 L 956,609 L 913,610 L 883,607 L 874,603 L 863,604 L 843,599 L 831,592 L 831,562 L 833,561 L 840,565 L 845,565 L 831,558 L 831,548 L 833,546 L 860,555 L 869,554 L 862,554 L 851,549 L 846,549 L 840,545 L 834,545 L 831,542 L 832,519 L 837,523 L 844,524 L 859,518 L 867,528 L 874,531 L 883,530 L 897,523 L 909,532 L 923,532 L 935,524 L 947,532 L 960,532 L 973,523 L 983,528 L 992,528 L 999,524 L 1004,517 L 1009,519 L 1004,513 L 997,522 L 990,525 L 983,525 L 972,519 L 964,527 L 956,530 L 948,530 L 934,520 L 924,528 L 912,530 L 904,526 L 897,518 L 884,526 L 874,528 L 869,526 L 858,512 L 847,520 L 839,521 L 834,517 L 829,517 L 825,511 L 825,489 L 827,484 L 833,478 L 842,473 L 863,467 L 866,469 L 867,477 L 872,481 L 887,480 L 891,477 L 891,466 L 896,463 L 914,463 L 916,479 L 926,483 L 937,482 L 941,478 L 941,465 L 943,463 L 963,464 L 966,467 L 966,476 L 974,481 L 987,480 L 990,477 L 992,469 L 1009,473 L 1023,481 L 1023,473 L 1020,471 L 992,462 L 993,415 L 987,407 L 992,402 L 994,397 L 994,385 L 984,361 L 981,359 L 978,362 L 965,388 L 965,394 L 973,408 L 965,417 L 966,455 L 964,458 L 942,455 L 942,412 L 936,405 L 942,398 L 944,386 L 931,356 L 925,360 L 925,364 L 915,383 L 915,398 L 921,408 L 915,412 L 914,455 L 893,457 L 891,455 L 892,414 L 886,407 L 893,398 L 894,388 L 883,363 L 880,360 L 877,360 L 865,390 L 866,399 L 872,407 L 865,413 L 864,416 L 864,460 L 841,466 L 829,472 L 821,481 L 818,497 L 797,492 L 786,495 L 767,507 L 755,506 L 753,504 L 754,494 L 774,489 L 805,475 L 830,458 L 845,442 L 853,428 L 856,418 L 857,399 L 855,397 L 853,381 L 856,347 L 862,342 L 866,343 L 873,351 L 874,358 L 877,356 L 875,346 L 865,337 L 858,336 L 858,305 L 856,300 L 859,299 L 865,304 L 867,304 L 867,302 L 853,293 L 846,264 L 839,249 L 825,228 L 813,214 L 809,213 L 809,215 L 815,220 L 827,236 L 838,258 L 847,285 L 845,288 L 840,286 L 823,268 L 749,199 L 740,189 L 739,179 L 735,175 L 737,182 L 737,212 L 739,211 L 739,201 L 741,200 L 810,262 L 847,291 L 850,296 L 850,307 L 852,310 L 850,354 L 848,357 L 848,389 L 850,391 L 851,410 L 848,422 L 838,439 L 824,453 L 808,465 L 779,480 L 740,492 L 695,493 L 709,499 L 734,500 L 746,497 L 748,499 L 747,503 L 750,513 L 765,513 L 769,517 L 781,540 L 770,547 L 758,551 L 750,559 L 735,554 L 718,554 L 710,552 L 695,530 L 679,515 L 681,513 L 688,515 L 689,513 L 689,492 L 687,490 L 659,486 L 624,473 L 612,465 L 589,440 L 587,445 L 582,447 L 568,447 L 560,444 L 548,435 L 539,422 L 537,416 L 537,402 L 539,398 L 546,391 L 554,387 L 561,389 L 574,404 L 578,404 L 573,387 L 571,362 L 580,337 L 584,332 L 598,327 L 651,299 L 654,299 L 671,286 L 700,254 L 701,257 L 696,269 L 685,282 L 688,283 L 708,267 L 709,265 L 701,271 L 698,271 L 710,242 L 714,213 L 713,212 L 710,216 L 710,221 L 706,232 L 689,260 L 657,291 L 636,304 L 629,306 L 607,318 L 605,316 L 620,301 L 636,293 L 643,292 L 638,291 L 626,294 L 619,298 L 598,322 L 577,331 L 542,342 L 530,348 L 525,348 L 520,342 L 519,333 L 520,328 L 526,318 L 538,306 L 579,276 L 597,259 L 667,177 L 649,193 L 608,242 L 583,268 L 530,308 L 528,307 L 529,299 L 526,310 L 518,323 L 515,336 L 516,344 L 522,354 L 525,355 L 542,346 L 573,336 L 575,338 L 568,358 L 561,370 L 546,386 L 526,403 L 514,419 L 509,429 L 506,443 L 506,460 L 511,476 L 517,482 L 509,462 L 509,445 L 511,442 L 511,435 L 520,416 L 532,403 L 533,419 L 539,433 L 549,444 L 560,450 L 562,454 L 582,454 L 585,452 L 591,452 L 604,467 L 621,479 L 649,490 L 680,496 L 682,498 L 682,506 L 673,510 L 660,503 L 648,501 L 646,499 L 632,499 L 620,503 L 607,511 L 599,519 L 591,531 L 585,547 L 582,584 L 587,603 L 595,617 L 603,624 L 613,630 L 633,634 L 633,640 L 641,647 L 643,654 L 643,671 L 639,679 L 623,679 L 620,681 L 605,683 L 603,685 L 592,687 L 548,707 L 547,703 L 551,689 L 551,678 L 545,664 L 538,656 L 535,648 L 535,652 L 543,666 L 548,681 L 547,695 L 544,704 L 545,709 L 510,732 L 501,729 L 496,723 L 507,710 L 504,710 L 492,717 L 472,719 L 460,713 L 450,702 L 451,699 L 463,699 L 471,694 L 477,681 L 476,674 L 467,658 L 456,650 L 452,650 L 438,641 L 426,624 L 426,568 L 432,553 L 438,545 L 463,522 L 473,510 L 481,492 L 481,481 L 483,479 L 493,496 L 494,507 L 490,518 L 476,530 L 476,532 L 486,526 L 494,518 L 497,511 L 497,498 L 490,481 L 469,453 L 461,430 L 461,412 L 463,410 L 462,406 L 465,392 L 475,373 L 488,356 L 489,352 L 487,349 L 463,382 L 457,396 L 454,411 L 454,427 L 459,447 L 476,474 L 476,490 L 474,492 L 474,497 L 467,508 L 436,538 L 427,550 L 426,549 L 426,44 L 429,37 L 437,29 L 441,28 Z" fill="#111" fill-rule="evenodd"/></svg>